#!OML:ASF Y:\EmotionMaleHayes\Project 1\Capture day 1\Session 1\Male1.ASF
:FULLY-SPECIFIED
:DEGREES
482
root 35.5751 15.6776 -5.85178 28.3561 40.2963 -358.428
lowerback 31.946 -3.26551 7.71511
upperback 12.8577 -1.3988 -2.01589
thorax -2.59633 -0.108077 -5.78087
lowerneck -17.2166 10.6011 12.1678
upperneck 3.06695 13.3356 -17.1875
head 5.77853 5.84118 -5.92544
rclavicle -1.86858e-014 3.58806e-014
rhumerus 54.933 -18.3498 -44.5248
rradius 64.0416
rwrist -18.5147
rhand -24.2606 -26.636
rfingers 7.12502
rthumb 2.22569 -56.6042
lclavicle -1.86858e-014 3.58806e-014
lhumerus -3.62205 -23.8514 71.8839
lradius 54.6672
lwrist 33.633
lhand -33.0498 -28.2205
lfingers 7.12502
lthumb -6.26226 1.66694
rfemur -37.4065 -9.75273 12.9803
rtibia 52.1946
rfoot -36.0278 -18.0421
rtoes -25.4357
lfemur -60.2563 16.4934 -25.7512
ltibia 74.4495
lfoot 169.333 8.66957
ltoes -29.5175
483
root 35.6467 15.6966 -5.72543 27.371 40.3504 -359.951
lowerback 32.0538 -3.22907 7.96273
upperback 12.8669 -1.30406 -2.38291
thorax -2.63003 -0.0450668 -6.32852
lowerneck -17.6762 10.6755 12.4225
upperneck 3.42042 13.3682 -17.1365
head 5.97834 5.82682 -5.92749
rclavicle 8.94531e-015 -1.04362e-014
rhumerus 56.3137 -14.9216 -45.046
rradius 62.6129
rwrist -18.7477
rhand -23.4916 -25.3145
rfingers 7.12502
rthumb 2.9684 -55.2735
lclavicle 8.94531e-015 -1.04362e-014
lhumerus -1.1738 -26.9913 69.0897
lradius 54.5592
lwrist 30.2629
lhand -32.5031 -28.9591
lfingers 7.12502
lthumb -5.73445 0.94333
rfemur -36.1681 -8.27845 14.3493
rtibia 50.9682
rfoot -36.4966 -18.0981
rtoes -24.176
lfemur -62.9168 16.207 -27.3214
ltibia 77.0622
lfoot 168.296 8.73613
ltoes -26.4093
484
root 35.736 15.7274 -5.59451 26.3308 40.3026 -361.491
lowerback 32.2547 -3.13473 8.04821
upperback 12.8221 -1.17475 -2.70596
thorax -2.74815 0.0213899 -6.75452
lowerneck -17.8866 10.726 12.5287
upperneck 3.43208 13.3782 -17.0327
head 6.01375 5.82759 -5.90237
rclavicle 2.23633e-014 6.32384e-015
rhumerus 57.6861 -11.0799 -45.1599
rradius 60.861
rwrist -19.8497
rhand -24.1183 -25.639
rfingers 7.12502
rthumb 2.36309 -55.6056
lclavicle 2.23633e-014 6.32384e-015
lhumerus 1.3334 -30.0002 66.0162
lradius 54.3864
lwrist 25.673
lhand -31.762 -29.5731
lfingers 7.12502
lthumb -5.01896 0.347505
rfemur -34.782 -7.23712 15.6652
rtibia 49.588
rfoot -36.928 -17.7748
rtoes -22.1676
lfemur -65.262 16.0338 -28.8518
ltibia 79.9383
lfoot 166.791 8.23688
ltoes -30.2234
485
root 35.8302 15.7599 -5.45916 25.3746 40.2015 -363.042
lowerback 32.3203 -2.87555 7.9695
upperback 12.7522 -0.892643 -2.83687
thorax -2.80939 0.148587 -6.94126
lowerneck -18.1279 10.6799 12.3349
upperneck 3.35807 13.3011 -16.8269
head 5.98557 5.78999 -5.81012
rclavicle -5.397e-014 7.33018e-014
rhumerus 58.8908 -7.36921 -44.6174
rradius 58.7711
rwrist -20.6422
rhand -23.5762 -25.5169
rfingers 7.12502
rthumb 2.88664 -55.4771
lclavicle -5.397e-014 7.33018e-014
lhumerus 4.03156 -32.8989 62.9216
lradius 54.1774
lwrist 20.021
lhand -30.9474 -30.2196
lfingers 7.12502
lthumb -4.23235 -0.281877
rfemur -33.1571 -6.07303 17
rtibia 47.6646
rfoot -36.9044 -17.7516
rtoes -21.2733
lfemur -67.2749 15.741 -30.0726
ltibia 83.9272
lfoot 167.75 36.4698
ltoes -34.2135
486
root 35.9361 15.7973 -5.31567 24.3337 39.9544 -364.646
lowerback 32.4425 -2.46451 7.92755
upperback 12.6162 -0.417849 -3.05012
thorax -2.9332 0.366865 -7.29737
lowerneck -18.2626 10.5744 12.3254
upperneck 3.28436 13.0854 -16.406
head 5.91238 5.70502 -5.70245
rclavicle 4.1546e-014 -1.13009e-013
rhumerus 59.4994 -3.65955 -44.0307
rradius 56.8026
rwrist -20.2979
rhand -23.469 -27.0329
rfingers 7.12502
rthumb 2.9902 -56.9917
lclavicle 4.1546e-014 -1.13009e-013
lhumerus 6.94421 -36.1241 59.2476
lradius 54.1201
lwrist 14.0189
lhand -30.0416 -31.8362
lfingers 7.12502
lthumb -3.35763 -1.88286
rfemur -31.3805 -4.74246 18.2617
rtibia 45.6794
rfoot -36.914 -16.956
rtoes -19.4619
lfemur -68.589 15.4431 -30.7655
ltibia 88.0684
lfoot 174.729 65.6114
ltoes -31.7744
487
root 36.0493 15.8422 -5.16552 23.3145 39.7681 -366.222
lowerback 32.5665 -2.1028 7.88236
upperback 12.4138 -0.00643058 -3.27483
thorax -3.13662 0.547966 -7.64632
lowerneck -18.2798 10.435 12.2576
upperneck 3.2417 12.8502 -15.9695
head 5.82402 5.61414 -5.58699
rclavicle 6.75868e-015 -4.82053e-014
rhumerus 59.3562 -0.194993 -43.9435
rradius 55.3294
rwrist -17.7478
rhand -21.5437 -27.4996
rfingers 7.12502
rthumb 4.84935 -57.4241
lclavicle 6.75868e-015 -4.82053e-014
lhumerus 9.8236 -38.7958 55.2979
lradius 54.1186
lwrist 6.9149
lhand -29.1635 -34.4818
lfingers 7.12502
lthumb -2.50966 -4.51679
rfemur -29.4992 -3.44369 19.5382
rtibia 43.6067
rfoot -36.6675 -16.282
rtoes -18.4807
lfemur -69.7247 15.4164 -31.3421
ltibia 89.4934
lfoot 304.823 82.8171
ltoes -30.8806
488
root 36.1736 15.8927 -5.00744 22.1714 39.6459 -367.85
lowerback 32.8237 -1.61441 7.61251
upperback 12.156 0.52583 -3.19523
thorax -3.42447 0.764428 -7.58943
lowerneck -18.1696 10.3267 12.3223
upperneck 3.34966 12.7685 -16.479
head 5.88018 5.54428 -5.77757
rclavicle -3.57812e-014 -6.71892e-014
rhumerus 58.9011 3.47994 -42.7484
rradius 54.7773
rwrist -16.5458
rhand -17.2368 -28.5245
rfingers 7.12502
rthumb 9.00682 -58.3123
lclavicle -3.57812e-014 -6.71892e-014
lhumerus 12.6054 -40.7516 51.8195
lradius 53.8504
lwrist -2.1108
lhand -29.2298 -38.1304
lfingers 7.12502
lthumb -2.57366 -8.16615
rfemur -27.223 -3.11973 20.7749
rtibia 40.962
rfoot -35.9735 -14.9298
rtoes -18.3606
lfemur -70.6645 15.7744 -31.8551
ltibia 87.3715
lfoot 338.682 54.6221
ltoes -31.2105
489
root 36.2969 15.9557 -4.83155 20.6973 38.8572 -369.831
lowerback 33.1458 -0.707899 6.87405
upperback 11.9613 1.43088 -3.07507
thorax -3.62705 1.1505 -7.35971
lowerneck -18.0957 10.316 12.6701
upperneck 3.42931 12.7738 -17.1847
head 5.98104 5.50981 -6.06418
rclavicle -1.82882e-014 3.35946e-014
rhumerus 57.804 7.28827 -41.6346
rradius 54.5068
rwrist -14.876
rhand -15.7026 -28.2713
rfingers 7.12502
rthumb 10.4871 -57.9897
lclavicle -1.82882e-014 3.35946e-014
lhumerus 15.5389 -41.9992 48.1851
lradius 53.9459
lwrist -10.942
lhand -28.2842 -41.8968
lfingers 7.12502
lthumb -1.66042 -11.9235
rfemur -24.8295 -2.26587 22.1941
rtibia 38.2486
rfoot -34.4095 -14.9398
rtoes -24.3066
lfemur -71.0373 16.9769 -31.9706
ltibia 82.4899
lfoot 339.842 24.0923
ltoes -27.1952
490
root 36.4459 16.0129 -4.65988 19.9191 39.0382 -370.891
lowerback 32.8919 -0.341818 6.44514
upperback 11.8885 1.73593 -3.03968
thorax -3.58012 1.2805 -7.18768
lowerneck -18.1453 10.3151 12.8918
upperneck 3.63914 12.7833 -17.5443
head 6.10345 5.48532 -6.21455
rclavicle 5.88403e-014 -1.8487e-014
rhumerus 56.3827 11.0919 -40.7474
rradius 54.9645
rwrist -13.6248
rhand -14.8471 -28.162
rfingers 7.12502
rthumb 11.3123 -57.8369
lclavicle 5.88403e-014 -1.8487e-014
lhumerus 18.5321 -42.9345 44.3198
lradius 54.2061
lwrist -19.9461
lhand -28.1977 -45.9692
lfingers 7.12502
lthumb -1.57689 -15.9953
rfemur -22.1478 -2.30699 22.5236
rtibia 35.3667
rfoot -33.8644 -11.4367
rtoes -17.7273
lfemur -71.2126 17.1062 -32.5493
ltibia 77.5617
lfoot 341.544 -6.40079
ltoes -20.597
491
root 36.6071 16.0554 -4.47501 18.8819 39.2707 -373.056
lowerback 31.8672 0.0503445 6.63052
upperback 11.7815 2.21448 -2.76334
thorax -3.23107 1.50707 -7.12607
lowerneck -18.5157 10.2877 12.7416
upperneck 4.21132 12.7992 -17.4694
head 6.32871 5.45468 -6.15223
rclavicle 2.3059e-014 7.39479e-014
rhumerus 54.5098 15.2026 -40.1557
rradius 55.8948
rwrist -12.4024
rhand -14.2578 -29.4606
rfingers 7.12502
rthumb 11.8805 -59.1035
lclavicle 2.3059e-014 7.39479e-014
lhumerus 21.3496 -43.2299 40.681
lradius 54.3727
lwrist -28.5371
lhand -28.6106 -51.2101
lfingers 7.12502
lthumb -1.97559 -21.2395
rfemur -20.1311 -2.72889 24.0953
rtibia 32.5675
rfoot -30.7915 -11.4358
rtoes -27.9796
lfemur -71.8358 17.5997 -32.3554
ltibia 74.0883
lfoot 342.031 -7.74128
ltoes -20.6237
492
root 36.7752 16.1107 -4.27888 17.3871 39.5206 -375.06
lowerback 31.2108 0.367386 6.53284
upperback 11.9536 2.52715 -2.12986
thorax -3.05946 1.63255 -6.98353
lowerneck -19.001 10.3182 12.2799
upperneck 4.92204 12.9679 -17.3244
head 6.61453 5.48499 -5.98931
rclavicle -5.32743e-014 6.91771e-014
rhumerus 52.4341 19.7359 -39.7601
rradius 57.0597
rwrist -11.8932
rhand -15.3225 -28.4317
rfingers 7.12502
rthumb 10.8537 -58.1313
lclavicle -5.32743e-014 6.91771e-014
lhumerus 23.7706 -43.2551 37.3015
lradius 54.6802
lwrist -36.3645
lhand -30.9864 -55.6667
lfingers 7.12502
lthumb -4.26996 -25.7298
rfemur -17.3173 -2.47007 25.1276
rtibia 29.7491
rfoot -28.2603 -8.83077
rtoes -30.0913
lfemur -71.3169 18.0297 -31.8629
ltibia 70.4066
lfoot 341.834 -7.378
ltoes -15.0456
493
root 36.9542 16.1759 -4.07551 15.6742 39.6528 -376.917
lowerback 31.2219 0.589056 6.15546
upperback 11.8875 2.72647 -1.69188
thorax -3.16392 1.69386 -6.33326
lowerneck -19.0339 10.3709 11.3193
upperneck 5.27728 13.2783 -17.0809
head 6.69414 5.61251 -5.70365
rclavicle 5.1684e-014 -1.16488e-013
rhumerus 51.5902 24.3842 -38.6181
rradius 57.6557
rwrist -12.3827
rhand -16.0138 -29.9307
rfingers 7.12502
rthumb 10.1868 -59.6641
lclavicle 5.1684e-014 -1.16488e-013
lhumerus 25.5648 -42.7755 34.5515
lradius 54.9624
lwrist -41.648
lhand -32.9489 -60.8529
lfingers 7.12502
lthumb -6.16491 -30.9626
rfemur -14.3288 -2.49802 25.6689
rtibia 27.5345
rfoot -25.6286 -4.48073
rtoes -28.8145
lfemur -70.2903 18.8481 -31.4244
ltibia 66.9703
lfoot 341.442 -5.89379
ltoes -15.4646
494
root 37.1402 16.2405 -3.87132 14.1371 39.7264 -378.609
lowerback 31.1874 1.00226 6.08335
upperback 11.6889 3.21743 -1.61121
thorax -3.31345 1.91018 -6.36004
lowerneck -18.9304 10.2423 11.6653
upperneck 5.35588 13.022 -17.001
head 6.68001 5.50129 -5.7773
rclavicle 1.51076e-014 -2.66371e-014
rhumerus 48.1343 28.4551 -40.5006
rradius 58.4318
rwrist -11.3246
rhand -16.8158 -29.3122
rfingers 7.12502
rthumb 9.41309 -59.082
lclavicle 1.51076e-014 -2.66371e-014
lhumerus 28.6206 -43.0919 30.4484
lradius 55.2374
lwrist -44.2869
lhand -34.503 -65.7737
lfingers 7.12502
lthumb -7.66513 -35.9326
rfemur -12.0589 -3.09872 25.8534
rtibia 26.2095
rfoot -22.0018 0.204777
rtoes -29.1442
lfemur -69.2591 19.7516 -31.0626
ltibia 63.9065
lfoot 341.047 -3.81057
ltoes -15.0555
495
root 37.34 16.304 -3.66534 12.4021 39.8786 -380.366
lowerback 31.2082 1.06058 5.67871
upperback 11.6982 3.2121 -1.17671
thorax -3.37646 1.87989 -5.63623
lowerneck -19.2238 10.4 11.0666
upperneck 5.46844 13.3953 -17.1599
head 6.79394 5.63699 -5.66514
rclavicle 1.27222e-014 -1.08536e-013
rhumerus 45.9984 32.8923 -42.1619
rradius 58.5935
rwrist -10.3349
rhand -17.5267 -28.9157
rfingers 7.12502
rthumb 8.72712 -58.7153
lclavicle 1.27222e-014 -1.08536e-013
lhumerus 29.7915 -42.1674 28.2147
lradius 55.2975
lwrist -44.6757
lhand -35.3327 -69.0184
lfingers 7.12502
lthumb -8.46585 -39.2081
rfemur -9.64929 -3.45429 25.9556
rtibia 24.8595
rfoot -17.26 4.86
rtoes -29.0075
lfemur -67.6857 20.5455 -30.2875
ltibia 60.8693
lfoot 340.841 -1.19734
ltoes -16.3874
